<svg width="40" height="9" viewBox="0 0 40 9" fill="none" xmlns="http://www.w3.org/2000/svg">
<path d="M6.49841 0C2.91507 0 0 2.01871 0 4.50005C0 6.98139 2.91507 9 6.49841 9C9.8878 9 12.6779 7.19363 12.97 4.8982H17.6471V5.8448L40 5.8448V3.15554L17.647 3.15554V4.10202H12.9699C12.6777 1.80648 9.8878 0 6.49841 0ZM18.5102 3.95161L39.1367 3.95161V5.04839H18.5102V3.95161ZM12.1338 4.50005C12.1338 6.54222 9.60563 8.2036 6.49829 8.2036C3.39095 8.2036 0.862811 6.54222 0.862811 4.50005C0.862811 2.45778 3.39095 0.796295 6.49829 0.796295C9.60563 0.796295 12.1338 2.45778 12.1338 4.50005Z" fill="#DCCA87"/>
</svg>
